<?xml version="1.0" encoding="UTF-8"?>
<svg id="Layer_1" data-name="Layer 1" xmlns="http://www.w3.org/2000/svg" viewBox="0 0 8503.94 6533.86">
  <defs>
    <style>
      .cls-1 {
        fill: #132a50;
      }

      .cls-2 {
        stroke: #1e98d5;
        stroke-width: 115.64px;
      }

      .cls-2, .cls-3 {
        fill: none;
        stroke-miterlimit: 10;
      }

      .cls-3 {
        stroke: #132a50;
        stroke-width: 113.1px;
      }
    </style>
  </defs>
  <g id="Full_Logo" data-name="Full Logo">
    <g id="Logo">
      <rect class="cls-3" x="1098.32" y="2659.04" width="1215.25" height="1215.25" transform="translate(602.35 6782.84) rotate(-135)"/>
      <rect class="cls-2" x="1178.95" y="2738.52" width="1055.14" height="1055.14"/>
      <g>
        <path class="cls-1" d="M1930.77,3136.62h-161.94v375.8h-130.07v-375.8h-158.97v-85.94h450.98v85.94Z"/>
        <rect class="cls-1" x="1479.8" y="3012.55" width="450.98" height="96.83"/>
      </g>
    </g>
    <g id="TesseractApps_Text" data-name="TesseractApps Text">
      <g>
        <path class="cls-1" d="M3355.02,3533.23c-60.05,0-108.65-17.89-145.77-53.71-37.14-35.82-55.73-82.41-55.73-139.83v-10.13c0-40.02,7.43-75.35,22.25-105.98,14.84-30.62,36.47-54.31,64.94-71.08,28.45-16.76,62.22-25.15,101.29-25.15,54.98,0,98.39,17.06,130.23,51.19s47.75,81.7,47.75,142.7v47.38h-242.37c4.34,21.95,13.87,39.21,28.59,51.74,14.7,12.53,33.76,18.81,57.14,18.81,38.59,0,68.75-13.52,90.45-40.52l55.69,65.85c-15.18,20.96-36.7,37.66-64.57,50.08-27.85,12.42-57.83,18.63-89.89,18.63ZM3341.27,3221.41c-35.7,0-56.93,23.65-63.67,70.9h122.99v-9.41c.48-19.53-4.46-34.66-14.82-45.4-10.38-10.73-25.22-16.09-44.5-16.09Z"/>
        <path class="cls-1" d="M3777.6,3416.03c0-10.38-5.42-18.67-16.27-24.95s-31.48-12.78-61.87-19.55c-30.39-6.74-55.46-15.6-75.24-26.57-19.76-10.98-34.85-24.3-45.21-39.99-10.38-15.67-15.56-33.63-15.56-53.89,0-35.93,14.84-65.54,44.5-88.81,29.66-23.26,68.48-34.9,116.48-34.9,51.6,0,93.08,11.7,124.44,35.1,31.34,23.38,47.03,54.14,47.03,92.24h-122.27c0-31.34-16.52-47.03-49.57-47.03-12.78,0-23.5,3.56-32.19,10.68-8.68,7.11-13.02,15.97-13.02,26.59s5.29,19.66,15.92,26.4c10.61,6.76,27.55,12.3,50.82,16.64,23.28,4.34,43.71,9.53,61.32,15.55,58.83,20.26,88.27,56.57,88.27,108.91,0,35.68-15.86,64.73-47.57,87.17-31.71,22.41-72.77,33.63-123.17,33.63-33.53,0-63.44-6.03-89.71-18.1-26.29-12.03-46.8-28.45-61.5-49.2-14.72-20.72-22.06-42.53-22.06-65.47h113.94c.48,18.1,6.51,31.3,18.09,39.63,11.58,8.29,26.4,12.46,44.5,12.46,16.62,0,29.12-3.35,37.43-10.13,8.33-6.74,12.48-15.53,12.48-26.4Z"/>
        <path class="cls-1" d="M4160.78,3416.03c0-10.38-5.42-18.67-16.27-24.95-10.85-6.28-31.48-12.78-61.87-19.55-30.39-6.74-55.46-15.6-75.24-26.57-19.76-10.98-34.85-24.3-45.21-39.99-10.38-15.67-15.56-33.63-15.56-53.89,0-35.93,14.84-65.54,44.5-88.81,29.66-23.26,68.48-34.9,116.48-34.9,51.6,0,93.08,11.7,124.44,35.1,31.34,23.38,47.03,54.14,47.03,92.24h-122.27c0-31.34-16.52-47.03-49.57-47.03-12.78,0-23.5,3.56-32.19,10.68-8.68,7.11-13.02,15.97-13.02,26.59s5.29,19.66,15.92,26.4c10.61,6.76,27.55,12.3,50.82,16.64,23.28,4.34,43.71,9.53,61.32,15.55,58.83,20.26,88.27,56.57,88.27,108.91,0,35.68-15.86,64.73-47.57,87.17-31.71,22.41-72.77,33.63-123.17,33.63-33.53,0-63.44-6.03-89.71-18.1-26.29-12.03-46.8-28.45-61.5-49.2-14.72-20.72-22.06-42.53-22.06-65.47h113.94c.48,18.1,6.51,31.3,18.09,39.63,11.58,8.29,26.4,12.46,44.5,12.46,16.62,0,29.12-3.35,37.43-10.13,8.33-6.74,12.48-15.53,12.48-26.4Z"/>
        <path class="cls-1" d="M4528.4,3533.23c-60.05,0-108.65-17.89-145.77-53.71-37.14-35.82-55.73-82.41-55.73-139.83v-10.13c0-40.02,7.43-75.35,22.25-105.98,14.84-30.62,36.47-54.31,64.94-71.08,28.45-16.76,62.22-25.15,101.29-25.15,54.98,0,98.39,17.06,130.23,51.19,31.83,34.13,47.75,81.7,47.75,142.7v47.38h-242.37c4.34,21.95,13.87,39.21,28.59,51.74,14.7,12.53,33.76,18.81,57.14,18.81,38.59,0,68.75-13.52,90.45-40.52l55.69,65.85c-15.18,20.96-36.7,37.66-64.57,50.08-27.85,12.42-57.83,18.63-89.89,18.63ZM4514.66,3221.41c-35.7,0-56.93,23.65-63.67,70.9h122.99v-9.41c.48-19.53-4.46-34.66-14.82-45.4-10.38-10.73-25.22-16.09-44.5-16.09Z"/>
        <path class="cls-1" d="M4982.84,3244.93l-40.14-2.89c-38.34,0-62.94,12.05-73.8,36.17v247.78h-121.92v-391.41h114.31l3.99,50.27c20.49-38.33,49.07-57.51,85.72-57.51,13.02,0,24.37,1.45,34.02,4.34l-2.19,113.23Z"/>
        <path class="cls-1" d="M5240.14,3526c-4.34-7.98-8.19-19.66-11.58-35.08-22.41,28.2-53.78,42.32-94.05,42.32-36.88,0-68.25-11.15-94.05-33.46-25.82-22.3-38.72-50.33-38.72-84.1,0-42.46,15.69-74.54,47.04-96.24,31.34-21.7,76.94-32.54,136.72-32.54h37.62v-20.73c0-36.1-15.53-54.16-46.66-54.16-28.94,0-43.41,14.29-43.41,42.9h-121.9c0-37.82,16.09-68.54,48.28-92.13,32.22-23.61,73.27-35.42,123.17-35.42s89.36,12.18,118.3,36.54c28.94,24.35,43.76,57.76,44.5,100.19v173.28c.49,35.93,6.03,63.42,16.62,82.48v6.14h-121.9ZM5163.8,3446.42c15.21,0,27.81-3.25,37.83-9.78,9.99-6.49,17.15-13.87,21.49-22.06v-62.57h-35.43c-42.46,0-63.67,19.02-63.67,57.14,0,11.12,3.74,20.08,11.22,26.96,7.45,6.88,16.98,10.31,28.55,10.31Z"/>
        <path class="cls-1" d="M5582.08,3439.18c17.12,0,30.39-4.62,39.77-13.94,9.42-9.28,13.98-22.23,13.76-38.86h114.31c0,42.92-15.39,78.14-46.13,105.59-30.74,27.53-70.37,41.26-118.83,41.26-56.93,0-101.78-17.86-134.57-53.54-32.82-35.68-49.2-85.12-49.2-148.31v-5.06c0-39.54,7.27-74.45,21.88-104.73,14.58-30.26,35.64-53.54,63.14-69.81,27.49-16.29,60.03-24.42,97.65-24.42,50.89,0,91.27,14.1,121.19,42.33,29.89,28.2,44.86,66.44,44.86,114.66h-114.31c0-20.26-4.94-35.82-14.82-46.66-9.92-10.87-23.15-16.29-39.81-16.29-31.59,0-50.04,20.13-55.34,60.4-1.69,12.79-2.54,30.39-2.54,52.83,0,39.28,4.69,66.56,14.12,81.74,9.39,15.21,24.35,22.8,44.86,22.8Z"/>
        <path class="cls-1" d="M5947.18,3037.28v97.32h64.37v84.65h-64.37v179.07c0,14.72,2.65,24.95,7.94,30.74,5.29,5.79,15.78,8.68,31.48,8.68,12.03,0,22.16-.74,30.39-2.15v87.17c-21.95,6.99-44.86,10.48-68.75,10.48-41.96,0-72.95-9.88-92.96-29.68-20.01-19.76-30.03-49.76-30.03-90.07v-194.25h-49.9v-84.65h49.9v-97.32h121.93Z"/>
        <path class="cls-1" d="M6367.93,3427.6h-173.99l-30.39,98.39h-135.66l193.19-526.7h119.36l194.64,526.7h-136.37l-30.77-98.39ZM6224.32,3329.56h113.22l-56.78-182.67-56.43,182.67Z"/>
        <path class="cls-1" d="M6934.93,3333.2c0,60.77-13.69,109.3-41.08,145.58-27.39,36.32-64.34,54.46-110.89,54.46-35.93,0-65.47-13.13-88.62-39.42v182.67h-121.93v-541.89h113.96l3.64,36.17c23.36-28.94,54.14-43.41,92.22-43.41,48.24,0,85.76,17.79,112.51,53.36,26.79,35.57,40.2,84.47,40.2,146.69v5.79ZM6812.99,3325.59c0-69.45-20.26-104.18-60.77-104.18-28.94,0-48.24,10.38-57.88,31.11v154.12c10.59,21.67,30.14,32.54,58.58,32.54,38.82,0,58.83-33.53,60.07-100.56v-13.02Z"/>
        <path class="cls-1" d="M7355.71,3333.2c0,60.77-13.69,109.3-41.08,145.58-27.35,36.32-64.34,54.46-110.85,54.46-35.96,0-65.5-13.13-88.65-39.42v182.67h-121.9v-541.89h113.96l3.64,36.17c23.36-28.94,54.1-43.41,92.22-43.41,48.24,0,85.72,17.79,112.51,53.36,26.79,35.57,40.16,84.47,40.16,146.69v5.79ZM7233.78,3325.59c0-69.45-20.26-104.18-60.77-104.18-28.94,0-48.21,10.38-57.88,31.11v154.12c10.62,21.67,30.17,32.54,58.62,32.54,38.82,0,58.83-33.53,60.03-100.56v-13.02Z"/>
        <path class="cls-1" d="M7618.04,3416.03c0-10.38-5.4-18.67-16.27-24.95-10.87-6.28-31.48-12.78-61.87-19.55-30.39-6.74-55.48-15.6-75.24-26.57-19.76-10.98-34.83-24.3-45.21-39.99-10.38-15.67-15.56-33.63-15.56-53.89,0-35.93,14.86-65.54,44.5-88.81,29.65-23.26,68.5-34.9,116.46-34.9,51.63,0,93.1,11.7,124.44,35.1,31.37,23.38,47.04,54.14,47.04,92.24h-122.29c0-31.34-16.52-47.03-49.55-47.03-12.78,0-23.5,3.56-32.19,10.68-8.68,7.11-13.02,15.97-13.02,26.59s5.29,19.66,15.92,26.4c10.62,6.76,27.56,12.3,50.82,16.64,23.26,4.34,43.73,9.53,61.34,15.55,58.83,20.26,88.23,56.57,88.23,108.91,0,35.68-15.85,64.73-47.54,87.17-31.73,22.41-72.77,33.63-123.2,33.63-33.49,0-63.42-6.03-89.71-18.1-26.26-12.03-46.76-28.45-61.48-49.2-14.72-20.72-22.06-42.53-22.06-65.47h113.96c.46,18.1,6.49,31.3,18.07,39.63,11.58,8.29,26.4,12.46,44.5,12.46,16.62,0,29.12-3.35,37.44-10.13,8.29-6.74,12.46-15.53,12.46-26.4Z"/>
      </g>
      <path class="cls-1" d="M3152.63,3097.36h-158.07v428.66h-126.98v-428.66h-155.18v-98.04h440.23v98.04Z"/>
    </g>
  </g>
</svg>