<svg width="2000" height="2575" viewBox="0 0 2000 2575" fill="none" xmlns="http://www.w3.org/2000/svg">
<path d="M1283.04 1015.08L993.159 847.723L703.287 1015.08L993.172 1182.45L1283.04 1015.08Z" fill="#5566A6"/>
<path d="M993.172 1182.45L703.287 1015.08V1349.79L993.172 1517.16V1182.45Z" fill="#160B29"/>
<path d="M1283.04 1015.08L993.172 1182.45V1517.16L1283.04 1349.79V1015.08Z" fill="#7486C4"/>
<path d="M1641.29 1231.63L1351.42 1064.27L1061.54 1231.63L1351.42 1398.98L1641.29 1231.63Z" fill="#5566A6"/>
<path d="M1351.42 1399L1061.53 1231.63V1566.34L1351.42 1733.71V1399Z" fill="#160B29"/>
<path d="M1641.3 1231.63L1351.42 1399V1733.71L1641.3 1566.34V1231.63Z" fill="#7486C4"/>
<path d="M1999.14 1592.9L1709.25 1425.55L1419.38 1592.9L1709.26 1760.26L1999.14 1592.9Z" fill="#485A9C"/>
<path d="M1709.26 1760.27L1419.38 1592.9V1927.62L1709.26 2094.99V1760.27Z" fill="#303E6E"/>
<path d="M1999.14 1592.9L1709.26 1760.27V2094.99L1999.14 1927.62V1592.9Z" fill="#BAC8F7"/>
<path d="M937.804 1224.25L647.919 1056.89L358.047 1224.25L647.932 1391.6L937.804 1224.25Z" fill="#5566A6"/>
<path d="M647.919 1391.6L358.047 1224.25V1558.96L647.919 1726.33V1391.6Z" fill="#160B29"/>
<path d="M937.803 1224.25L647.918 1391.6V1726.33L937.803 1558.96V1224.25Z" fill="#7486C4"/>
<path d="M1296.05 1440.79L1006.16 1273.44L716.291 1440.79L1006.18 1608.15L1296.05 1440.79Z" fill="#5566A6"/>
<path d="M1006.18 1608.15L716.291 1440.79V1775.51L1006.18 1942.87V1608.15Z" fill="#160B29"/>
<path d="M1296.06 1440.79L1006.18 1608.15V1942.87L1296.06 1775.51V1440.79Z" fill="#7486C4"/>
<path d="M1653.9 1649.96L1364.01 1482.59L1074.14 1649.95L1364.02 1817.32L1653.9 1649.96Z" fill="#485A9C"/>
<path d="M1364.01 1817.32L1074.14 1649.95V1984.67L1364.01 2152.03V1817.32Z" fill="#303E6E"/>
<path d="M1653.9 1649.95L1364.01 1817.32V2152.03L1653.9 1984.67V1649.95Z" fill="#BAC8F7"/>
<path d="M579.757 1893.69L289.872 1726.33L0 1893.69L289.885 2061.04L579.757 1893.69Z" fill="url(#paint0_linear_679_1532)"/>
<path d="M289.885 2061.04L0 1893.69V2228.4L289.885 2395.76V2061.04Z" fill="#CDD6F7"/>
<path d="M579.757 1893.69L289.885 2061.04V2395.76L579.757 2228.4V1893.69Z" fill="#7486C4"/>
<path d="M938.001 1771.82L648.116 1604.46L358.244 1771.82L648.129 1939.19L938.001 1771.82Z" fill="#5263A3"/>
<path d="M648.129 1939.19L358.244 1771.82V2106.53L648.129 2273.9V1939.19Z" fill="#CDD6F7"/>
<path d="M938.013 1771.82L648.129 1939.19V2273.9L938.013 2106.53V1771.82Z" fill="#7486C4"/>
<path d="M1295.85 2072.04L1005.96 1904.68L716.092 2072.04L1005.98 2239.41L1295.85 2072.04Z" fill="#5566A6"/>
<path d="M1005.98 2239.41L716.092 2072.04V2406.76L1005.98 2574.13V2239.41Z" fill="#CDD6F7"/>
<path d="M1295.85 2072.04L1005.98 2239.41V2574.13L1295.85 2406.76V2072.04Z" fill="#BAC8F7"/>
<path d="M1283.04 591.225L993.159 423.855L703.287 591.213L993.172 758.583L1283.04 591.225Z" fill="#1B0E34"/>
<path d="M993.172 758.582L703.287 591.225V925.939L993.172 1093.3V758.582Z" fill="#160B29"/>
<path d="M1283.04 591.225L993.172 758.582V1093.3L1283.04 925.939V591.225Z" fill="#7486C4"/>
<path d="M1641.29 807.772L1351.42 640.402L1061.54 807.76L1351.42 975.129L1641.29 807.772Z" fill="#1B0E34"/>
<path d="M1351.42 975.13L1061.53 807.76V1142.49L1351.42 1309.84V975.13Z" fill="#160B29"/>
<path d="M1641.3 807.76L1351.42 975.13V1309.84L1641.3 1142.49V807.76Z" fill="#7486C4"/>
<path d="M1999.14 1016.93L1709.25 849.568L1419.38 1016.93L1709.26 1184.28L1999.14 1016.93Z" fill="#485A9C"/>
<path d="M1709.26 1184.3L1419.38 1016.93V1351.64L1709.26 1519.01V1184.3Z" fill="#303E6E"/>
<path d="M1999.14 1016.93L1709.26 1184.3V1519.01L1999.14 1351.64V1016.93Z" fill="#BAC8F7"/>
<path d="M937.804 800.379L647.919 633.021L358.047 800.379L647.932 967.749L937.804 800.379Z" fill="#1B0E34"/>
<path d="M647.919 967.749L358.047 800.379V1135.09L647.919 1302.46V967.749Z" fill="#160B29"/>
<path d="M937.803 800.379L647.918 967.749V1302.46L937.803 1135.09V800.379Z" fill="#7486C4"/>
<path d="M1296.05 1016.93L1006.16 849.568L716.291 1016.93L1006.18 1184.28L1296.05 1016.93Z" fill="#1B0E34"/>
<path d="M1006.18 1184.3L716.291 1016.93V1351.64L1006.18 1519.01V1184.3Z" fill="#160B29"/>
<path d="M1296.06 1016.93L1006.18 1184.3V1519.01L1296.06 1351.64V1016.93Z" fill="#7486C4"/>
<path d="M1653.9 1226.09L1364.01 1058.73L1074.14 1226.09L1364.02 1393.45L1653.9 1226.09Z" fill="#485A9C"/>
<path d="M1364.01 1393.45L1074.14 1226.09V1560.81L1364.01 1728.18V1393.45Z" fill="#303E6E"/>
<path d="M1653.9 1226.09L1364.01 1393.45V1728.18L1653.9 1560.81V1226.09Z" fill="#BAC8F7"/>
<path d="M579.757 1129.68L289.872 962.324L0 1129.68L289.885 1297.04L579.757 1129.68Z" fill="url(#paint1_linear_679_1532)"/>
<path d="M289.885 1297.05L0 1129.68V1464.4L289.885 1631.77V1297.05Z" fill="#CDD6F7"/>
<path d="M579.757 1129.68L289.885 1297.05V1631.77L579.757 1464.4V1129.68Z" fill="#7486C4"/>
<path d="M938.001 1229.78L648.116 1062.42L358.244 1229.78L648.129 1397.14L938.001 1229.78Z" fill="#42528F"/>
<path d="M648.129 1397.14L358.244 1229.78V1564.5L648.129 1731.87V1397.14Z" fill="#CDD6F7"/>
<path d="M938.013 1229.78L648.129 1397.14V1731.87L938.013 1564.5V1229.78Z" fill="#7486C4"/>
<path d="M1295.85 1499.74L1005.96 1332.38L716.092 1499.74L1005.98 1667.1L1295.85 1499.74Z" fill="#485A9C"/>
<path d="M1005.98 1667.11L716.092 1499.74V1834.45L1005.98 2001.82V1667.11Z" fill="#CDD6F7"/>
<path d="M1295.85 1499.74L1005.98 1667.11V2001.82L1295.85 1834.45V1499.74Z" fill="#BAC8F7"/>
<path d="M1283.04 167.357L993.159 0L703.287 167.357L993.172 334.715L1283.04 167.357Z" fill="url(#paint2_linear_679_1532)"/>
<path d="M993.172 334.727L703.287 167.357V502.072L993.172 669.442V334.727Z" fill="#303E6E"/>
<path d="M1283.04 167.357L993.172 334.727V669.442L1283.04 502.072V167.357Z" fill="#485A9C"/>
<path d="M1641.29 383.904L1351.42 216.547L1061.54 383.904L1351.42 551.262L1641.29 383.904Z" fill="url(#paint3_linear_679_1532)"/>
<path d="M1351.42 551.262L1061.53 383.904V718.619L1351.42 885.989V551.262Z" fill="#303E6E"/>
<path d="M1641.3 383.904L1351.42 551.262V885.989L1641.3 718.619V383.904Z" fill="#485A9C"/>
<path d="M1999.14 593.069L1709.25 425.699L1419.38 593.057L1709.26 760.426L1999.14 593.069Z" fill="url(#paint4_linear_679_1532)"/>
<path d="M1709.26 760.426L1419.38 593.068V927.783L1709.26 1095.14V760.426Z" fill="#303E6E"/>
<path d="M1999.14 593.068L1709.26 760.426V1095.14L1999.14 927.783V593.068Z" fill="#BAC8F7"/>
<path d="M937.804 376.524L647.919 209.154L358.047 376.524L647.932 543.881L937.804 376.524Z" fill="url(#paint5_linear_679_1532)"/>
<path d="M647.919 543.881L358.047 376.523V711.238L647.919 878.596V543.881Z" fill="#303E6E"/>
<path d="M937.803 376.523L647.918 543.881V878.596L937.803 711.238V376.523Z" fill="#485A9C"/>
<path d="M1296.05 593.069L1006.16 425.699L716.291 593.057L1006.18 760.426L1296.05 593.069Z" fill="url(#paint6_linear_679_1532)"/>
<path d="M1006.18 760.428L716.291 593.07V927.785L1006.18 1095.14V760.428Z" fill="#303E6E"/>
<path d="M1296.06 593.07L1006.18 760.428V1095.14L1296.06 927.785V593.07Z" fill="#485A9C"/>
<path d="M1653.9 802.223L1364.01 634.865L1074.14 802.223L1364.02 969.58L1653.9 802.223Z" fill="url(#paint7_linear_679_1532)"/>
<path d="M1364.01 969.592L1074.14 802.223V1136.94L1364.01 1304.31V969.592Z" fill="#303E6E"/>
<path d="M1653.9 802.223L1364.01 969.592V1304.31L1653.9 1136.94V802.223Z" fill="#BAC8F7"/>
<path d="M579.757 589.38L289.872 422.01L0 589.367L289.885 756.737L579.757 589.38Z" fill="url(#paint8_linear_679_1532)"/>
<path d="M289.885 756.736L0 589.379V924.094L289.885 1091.45V756.736Z" fill="#CDD6F7"/>
<path d="M579.757 589.379L289.885 756.736V1091.45L579.757 924.094V589.379Z" fill="#485A9C"/>
<path d="M938.001 805.926L648.116 638.557L358.244 805.914L648.129 973.284L938.001 805.926Z" fill="url(#paint9_linear_679_1532)"/>
<path d="M648.129 973.284L358.244 805.914V1140.64L648.129 1308V973.284Z" fill="#CDD6F7"/>
<path d="M938.013 805.914L648.129 973.284V1308L938.013 1140.64V805.914Z" fill="#485A9C"/>
<path d="M1295.85 1015.08L1005.96 847.723L716.092 1015.08L1005.98 1182.44L1295.85 1015.08Z" fill="url(#paint10_linear_679_1532)"/>
<path d="M1005.98 1182.45L716.092 1015.08V1349.79L1005.98 1517.16V1182.45Z" fill="#CDD6F7"/>
<path d="M1295.85 1015.08L1005.98 1182.45V1517.16L1295.85 1349.79V1015.08Z" fill="#BAC8F7"/>
<defs>
<linearGradient id="paint0_linear_679_1532" x1="-100.697" y1="1805.74" x2="562.356" y2="1955.04" gradientUnits="userSpaceOnUse">
<stop stop-color="#F1F4FE"/>
<stop offset="0.212" stop-color="#CDD6F7"/>
<stop offset="0.3427" stop-color="#A2AEDA"/>
<stop offset="0.5105" stop-color="#7281B8"/>
<stop offset="0.6385" stop-color="#5365A4"/>
<stop offset="0.7105" stop-color="#485A9C"/>
<stop offset="1" stop-color="#303E6E"/>
</linearGradient>
<linearGradient id="paint1_linear_679_1532" x1="-141.283" y1="1163.72" x2="526.162" y2="1111.03" gradientUnits="userSpaceOnUse">
<stop stop-color="#F1F4FE"/>
<stop offset="0.212" stop-color="#CDD6F7"/>
<stop offset="0.3427" stop-color="#A2AEDA"/>
<stop offset="0.5105" stop-color="#7281B8"/>
<stop offset="0.6385" stop-color="#5365A4"/>
<stop offset="0.7105" stop-color="#485A9C"/>
<stop offset="1" stop-color="#303E6E"/>
</linearGradient>
<linearGradient id="paint2_linear_679_1532" x1="2076.11" y1="312.177" x2="-879.099" y2="-83.0186" gradientUnits="userSpaceOnUse">
<stop stop-color="#FBFDFF"/>
<stop offset="1" stop-color="#E5EAFD"/>
</linearGradient>
<linearGradient id="paint3_linear_679_1532" x1="2053.95" y1="477.853" x2="-901.254" y2="82.6561" gradientUnits="userSpaceOnUse">
<stop stop-color="#FBFDFF"/>
<stop offset="1" stop-color="#E5EAFD"/>
</linearGradient>
<linearGradient id="paint4_linear_679_1532" x1="2032.76" y1="636.325" x2="-922.446" y2="241.129" gradientUnits="userSpaceOnUse">
<stop stop-color="#FBFDFF"/>
<stop offset="1" stop-color="#E5EAFD"/>
</linearGradient>
<linearGradient id="paint5_linear_679_1532" x1="2042.56" y1="563.022" x2="-912.643" y2="167.826" gradientUnits="userSpaceOnUse">
<stop stop-color="#FBFDFF"/>
<stop offset="1" stop-color="#E5EAFD"/>
</linearGradient>
<linearGradient id="paint6_linear_679_1532" x1="2020.41" y1="728.696" x2="-934.803" y2="333.499" gradientUnits="userSpaceOnUse">
<stop stop-color="#FBFDFF"/>
<stop offset="1" stop-color="#E5EAFD"/>
</linearGradient>
<linearGradient id="paint7_linear_679_1532" x1="1999.21" y1="887.17" x2="-955.991" y2="491.974" gradientUnits="userSpaceOnUse">
<stop stop-color="#FBFDFF"/>
<stop offset="1" stop-color="#E5EAFD"/>
</linearGradient>
<linearGradient id="paint8_linear_679_1532" x1="2008.31" y1="819.176" x2="-946.896" y2="423.98" gradientUnits="userSpaceOnUse">
<stop stop-color="#FBFDFF"/>
<stop offset="1" stop-color="#E5EAFD"/>
</linearGradient>
<linearGradient id="paint9_linear_679_1532" x1="1986.15" y1="984.85" x2="-969.057" y2="589.655" gradientUnits="userSpaceOnUse">
<stop stop-color="#FBFDFF"/>
<stop offset="1" stop-color="#E5EAFD"/>
</linearGradient>
<linearGradient id="paint10_linear_679_1532" x1="1964.96" y1="1143.33" x2="-990.245" y2="748.129" gradientUnits="userSpaceOnUse">
<stop stop-color="#FBFDFF"/>
<stop offset="1" stop-color="#E5EAFD"/>
</linearGradient>
</defs>
</svg>
