<svg width="3161" height="3625" viewBox="0 0 3161 3625" fill="none" xmlns="http://www.w3.org/2000/svg">
<path d="M589.701 2393.21C587.681 2393.21 585.661 2392.69 583.851 2391.64L85.8207 2103.66C82.2007 2101.58 79.9707 2097.71 79.9707 2093.56V1518.82C79.9707 1514.66 82.2007 1510.79 85.8207 1508.7L583.851 1220.72C587.471 1218.64 591.931 1218.64 595.551 1220.72L1093.58 1508.7C1097.2 1510.79 1099.42 1514.66 1099.42 1518.82L1099.44 2093.56C1099.44 2097.72 1097.21 2101.59 1093.6 2103.66L595.561 2391.64C593.761 2392.69 591.731 2393.21 589.711 2393.21H589.701ZM103.351 2086.8L589.701 2368.03L1076.05 2086.8L1076.03 1525.56L589.701 1244.33L103.351 1525.56V2086.8Z" fill="#000023"/>
<path d="M589.691 1817.85C587.711 1817.85 585.691 1817.34 583.851 1816.28L85.8207 1528.94C80.2307 1525.72 78.3007 1518.58 81.5307 1512.98C84.7707 1507.4 91.9207 1505.47 97.5007 1508.7L595.531 1796.03C601.121 1799.25 603.051 1806.41 599.821 1812C597.651 1815.74 593.721 1817.85 589.681 1817.85H589.691Z" fill="#000023"/>
<path d="M589.721 1817.85C585.671 1817.85 581.751 1815.75 579.581 1812C576.351 1806.41 578.261 1799.24 583.851 1796.03L1081.88 1508.7C1087.46 1505.47 1094.63 1507.4 1097.85 1512.98C1101.08 1518.57 1099.16 1525.72 1093.57 1528.94L595.541 1816.28C593.701 1817.34 591.701 1817.85 589.721 1817.85Z" fill="#000023"/>
<path d="M589.701 2393.21C583.251 2393.21 578.011 2387.97 578.011 2381.52V1806.14C578.011 1799.69 583.251 1794.46 589.701 1794.46C596.151 1794.46 601.391 1799.69 601.391 1806.14V2381.52C601.391 2387.97 596.161 2393.21 589.701 2393.21Z" fill="#000023"/>
<path d="M1585.78 2393.21C1583.76 2393.21 1581.73 2392.69 1579.93 2391.64L1081.88 2103.66C1078.28 2101.58 1076.05 2097.71 1076.05 2093.56L1076.03 1518.82C1076.03 1514.66 1078.26 1510.79 1081.86 1508.7L1579.93 1220.72C1583.55 1218.64 1588.01 1218.64 1591.63 1220.72L2089.69 1508.7C2093.31 1510.79 2095.52 1514.66 2095.52 1518.82L2095.54 2093.56C2095.54 2097.72 2093.33 2101.59 2089.71 2103.66L1591.63 2391.64C1589.81 2392.69 1587.79 2393.21 1585.78 2393.21ZM1099.43 2086.8L1585.78 2368.03L2072.16 2086.8V1525.56L1585.78 1244.33L1099.41 1525.56L1099.43 2086.8Z" fill="#000023"/>
<path d="M1585.77 1817.85C1583.79 1817.85 1581.79 1817.34 1579.94 1816.28L1081.88 1528.94C1076.3 1525.72 1074.37 1518.58 1077.6 1512.98C1080.83 1507.4 1087.97 1505.47 1093.57 1508.7L1591.63 1796.03C1597.23 1799.25 1599.14 1806.41 1595.91 1812C1593.75 1815.74 1589.8 1817.85 1585.77 1817.85Z" fill="#000023"/>
<path d="M1585.79 1817.85C1581.75 1817.85 1577.82 1815.75 1575.65 1812C1572.42 1806.41 1574.34 1799.24 1579.94 1796.03L2078.02 1508.7C2083.6 1505.47 2090.74 1507.4 2093.97 1512.98C2097.2 1518.57 2095.29 1525.72 2089.68 1528.94L1591.63 1816.28C1589.79 1817.34 1587.78 1817.85 1585.79 1817.85Z" fill="#000023"/>
<path d="M1585.78 2393.21C1579.32 2393.21 1574.09 2387.97 1574.09 2381.52V1806.14C1574.09 1799.69 1579.32 1794.46 1585.78 1794.46C1592.24 1794.46 1597.47 1799.69 1597.47 1806.14V2381.52C1597.47 2387.97 1592.24 2393.21 1585.78 2393.21Z" fill="#000023"/>
<path d="M2581.88 2393.21C2579.87 2393.21 2577.84 2392.69 2576.03 2391.64L2078.01 2103.66C2074.39 2101.58 2072.15 2097.71 2072.15 2093.56V1518.82C2072.15 1514.66 2074.38 1510.79 2078 1508.7L2576.03 1220.72C2579.65 1218.64 2584.11 1218.64 2587.72 1220.72L3085.77 1508.7C3089.37 1510.79 3091.61 1514.66 3091.61 1518.82V2093.56C3091.61 2097.72 3089.38 2101.59 3085.78 2103.66L2587.71 2391.64C2585.9 2392.69 2583.89 2393.21 2581.86 2393.21H2581.88ZM2095.54 2086.8L2581.88 2368.03L3068.26 2086.8L3068.24 1525.56L2581.88 1244.33L2095.52 1525.56L2095.54 2086.8Z" fill="#000023"/>
<path d="M2581.88 1817.85C2579.89 1817.85 2577.88 1817.34 2576.05 1816.28L2078.02 1528.94C2072.41 1525.72 2070.48 1518.58 2073.71 1512.98C2076.94 1507.4 2084.1 1505.47 2089.68 1508.7L2587.71 1796.03C2593.32 1799.25 2595.24 1806.41 2592.02 1812C2589.84 1815.74 2585.9 1817.85 2581.88 1817.85Z" fill="#000023"/>
<path d="M2581.88 1817.85C2577.86 1817.85 2573.92 1815.75 2571.76 1812C2568.53 1806.41 2570.44 1799.24 2576.05 1796.03L3074.08 1508.7C3079.67 1505.47 3086.82 1507.4 3090.05 1512.98C3093.28 1518.57 3091.35 1525.72 3085.76 1528.94L2587.71 1816.28C2585.88 1817.34 2583.89 1817.85 2581.88 1817.85Z" fill="#000023"/>
<path d="M2581.88 2393.21C2575.43 2393.21 2570.21 2387.97 2570.21 2381.52V1806.14C2570.21 1799.69 2575.43 1794.46 2581.88 1794.46C2588.33 1794.46 2593.57 1799.69 2593.57 1806.14V2381.52C2593.57 2387.97 2588.33 2393.21 2581.88 2393.21Z" fill="#000023"/>
<path d="M1087.74 3255.87C1085.72 3255.87 1083.7 3255.33 1081.89 3254.3L583.86 2966.3C580.24 2964.22 578.021 2960.35 578.021 2956.2V2381.53C578.021 2377.37 580.24 2373.5 583.86 2371.41L1081.89 2083.43C1085.51 2081.35 1089.98 2081.35 1093.6 2083.43L1591.64 2371.41C1595.26 2373.5 1597.48 2377.37 1597.48 2381.53V2956.2C1597.48 2960.36 1595.26 2964.22 1591.64 2966.3L1093.6 3254.3C1091.79 3255.33 1089.77 3255.87 1087.75 3255.87H1087.74ZM601.391 2949.45L1087.73 3230.68L1574.08 2949.45V2388.26L1087.73 2107.03L601.391 2388.26V2949.45Z" fill="#000023"/>
<path d="M1087.73 2680.56C1085.74 2680.56 1083.74 2680.05 1081.91 2678.99L583.86 2391.65C578.27 2388.44 576.36 2381.28 579.59 2375.7C582.82 2370.11 589.971 2368.18 595.551 2371.41L1093.58 2658.75C1099.18 2661.96 1101.1 2669.12 1097.87 2674.72C1095.71 2678.45 1091.78 2680.57 1087.73 2680.57V2680.56Z" fill="#000023"/>
<path d="M1087.75 2680.56C1083.71 2680.56 1079.78 2678.45 1077.61 2674.71C1074.38 2669.12 1076.3 2661.95 1081.9 2658.74L1579.93 2371.4C1585.52 2368.17 1592.67 2370.1 1595.89 2375.69C1599.12 2381.27 1597.21 2388.43 1591.61 2391.64L1093.56 2678.98C1091.73 2680.04 1089.72 2680.55 1087.74 2680.55L1087.75 2680.56Z" fill="#000023"/>
<path d="M1087.74 3255.87C1081.29 3255.87 1076.06 3250.62 1076.06 3244.16V2668.85C1076.06 2662.4 1081.29 2657.18 1087.74 2657.18C1094.19 2657.18 1099.43 2662.4 1099.43 2668.85V3244.16C1099.43 3250.61 1094.2 3255.87 1087.74 3255.87Z" fill="#000023"/>
<path d="M2083.86 3255.87C2081.83 3255.87 2079.82 3255.33 2078.01 3254.3L1579.93 2966.3C1576.31 2964.22 1574.08 2960.35 1574.08 2956.2V2381.53C1574.08 2377.37 1576.31 2373.5 1579.93 2371.41L2078.01 2083.43C2081.63 2081.35 2086.09 2081.35 2089.7 2083.43L2587.72 2371.41C2591.34 2373.5 2593.56 2377.37 2593.56 2381.53L2593.58 2956.2C2593.58 2960.36 2591.35 2964.22 2587.73 2966.3L2089.7 3254.3C2087.89 3255.33 2085.87 3255.87 2083.86 3255.87ZM1597.47 2949.45L2083.86 3230.68L2570.22 2949.45L2570.2 2388.26L2083.86 2107.03L1597.47 2388.26V2949.45Z" fill="#000023"/>
<path d="M2083.85 2680.56C2081.86 2680.56 2079.86 2680.05 2078.04 2678.99L1579.95 2391.65C1574.35 2388.44 1572.43 2381.28 1575.66 2375.7C1578.9 2370.11 1586.06 2368.18 1591.63 2371.41L2089.7 2658.75C2095.31 2661.96 2097.22 2669.12 2093.99 2674.72C2091.83 2678.45 2087.89 2680.57 2083.85 2680.57V2680.56Z" fill="#000023"/>
<path d="M2083.86 2680.56C2079.82 2680.56 2075.89 2678.45 2073.72 2674.71C2070.49 2669.12 2072.42 2661.95 2078.03 2658.74L2576.05 2371.4C2581.63 2368.17 2588.79 2370.1 2592.02 2375.69C2595.25 2381.27 2593.32 2388.43 2587.71 2391.64L2089.69 2678.98C2087.87 2680.04 2085.84 2680.55 2083.86 2680.55V2680.56Z" fill="#000023"/>
<path d="M2083.86 3255.87C2077.39 3255.87 2072.15 3250.62 2072.15 3244.16V2668.85C2072.15 2662.4 2077.39 2657.18 2083.86 2657.18C2090.33 2657.18 2095.53 2662.4 2095.53 2668.85V3244.16C2095.53 3250.61 2090.31 3255.87 2083.86 3255.87Z" fill="#000023"/>
<path d="M1087.74 1530.5C1085.72 1530.5 1083.7 1529.98 1081.89 1528.93L583.86 1240.96C580.24 1238.87 578.021 1235 578.021 1230.84V656.17C578.021 652 580.24 648.15 583.86 646.05L1081.89 358.07C1085.51 355.99 1089.98 355.99 1093.6 358.07L1591.64 646.05C1595.26 648.15 1597.48 652 1597.48 656.17V1230.84C1597.48 1235 1595.26 1238.86 1591.64 1240.96L1093.6 1528.93C1091.79 1529.98 1089.77 1530.5 1087.75 1530.5H1087.74ZM601.391 1224.1L1087.73 1505.33L1574.08 1224.1V662.92L1087.73 381.7L601.391 662.92V1224.1Z" fill="#000023"/>
<path d="M1087.73 955.199C1085.74 955.199 1083.74 954.689 1081.91 953.629L583.86 666.299C578.27 663.069 576.36 655.919 579.59 650.329C582.82 644.749 589.971 642.829 595.551 646.059L1093.58 933.389C1099.18 936.609 1101.1 943.759 1097.87 949.359C1095.71 953.109 1091.78 955.209 1087.73 955.209V955.199Z" fill="#000023"/>
<path d="M1087.75 955.199C1083.71 955.199 1079.78 953.109 1077.61 949.349C1074.38 943.759 1076.3 936.599 1081.9 933.379L1579.93 646.049C1585.52 642.819 1592.67 644.739 1595.89 650.319C1599.12 655.909 1597.21 663.069 1591.61 666.289L1093.56 953.619C1091.73 954.679 1089.72 955.189 1087.74 955.189L1087.75 955.199Z" fill="#000023"/>
<path d="M1087.74 1530.5C1081.29 1530.5 1076.06 1525.26 1076.06 1518.81V943.51C1076.06 937.06 1081.29 931.83 1087.74 931.83C1094.19 931.83 1099.43 937.06 1099.43 943.51V1518.81C1099.43 1525.26 1094.2 1530.5 1087.74 1530.5Z" fill="#000023"/>
<path d="M2083.86 1530.5C2081.83 1530.5 2079.82 1529.98 2078.01 1528.93L1579.93 1240.96C1576.31 1238.87 1574.08 1235 1574.08 1230.84V656.17C1574.08 652 1576.31 648.15 1579.93 646.05L2078.01 358.07C2081.63 355.99 2086.09 355.99 2089.7 358.07L2587.72 646.05C2591.34 648.15 2593.56 652 2593.56 656.17L2593.58 1230.84C2593.58 1235 2591.35 1238.86 2587.73 1240.96L2089.7 1528.93C2087.89 1529.98 2085.87 1530.5 2083.86 1530.5ZM1597.47 1224.1L2083.86 1505.33L2570.22 1224.1L2570.2 662.92L2083.86 381.7L1597.47 662.92V1224.1Z" fill="#000023"/>
<path d="M2083.85 955.199C2081.86 955.199 2079.86 954.689 2078.04 953.629L1579.95 666.299C1574.35 663.069 1572.43 655.919 1575.66 650.329C1578.9 644.749 1586.06 642.829 1591.63 646.059L2089.7 933.389C2095.31 936.609 2097.22 943.759 2093.99 949.359C2091.83 953.109 2087.89 955.209 2083.85 955.209V955.199Z" fill="#000023"/>
<path d="M2083.86 955.199C2079.82 955.199 2075.89 953.109 2073.72 949.349C2070.49 943.759 2072.42 936.599 2078.03 933.379L2576.05 646.049C2581.63 642.819 2588.79 644.739 2592.02 650.319C2595.25 655.909 2593.32 663.069 2587.71 666.289L2089.69 953.619C2087.87 954.679 2085.84 955.189 2083.86 955.189V955.199Z" fill="#000023"/>
<path d="M2083.86 1530.5C2077.39 1530.5 2072.15 1525.26 2072.15 1518.81V943.51C2072.15 937.06 2077.39 931.83 2083.86 931.83C2090.33 931.83 2095.53 937.06 2095.53 943.51V1518.81C2095.53 1525.26 2090.31 1530.5 2083.86 1530.5Z" fill="#000023"/>
<path d="M1585.76 3543.85C1583.74 3543.85 1581.72 3543.31 1579.91 3542.28L85.8097 2678.33C82.1897 2676.25 79.9597 2672.38 79.9597 2668.21L79.9297 944.171C79.9297 940.011 82.1597 936.151 85.7697 934.051L1579.91 70.1105C1583.53 68.0205 1587.99 68.0205 1591.62 70.1105L3085.75 934.051C3089.35 936.151 3091.6 940.011 3091.6 944.171L3091.62 2668.21C3091.62 2672.38 3089.37 2676.25 3085.78 2678.33L1591.63 3542.28C1589.8 3543.31 1587.79 3543.85 1585.77 3543.85H1585.76ZM103.35 2661.46L1585.76 3518.66L3068.24 2661.46L3068.22 950.911L1585.76 93.7205L103.32 950.911L103.35 2661.46Z" fill="#000023"/>
<path d="M1585.76 3594.72C1585.09 3594.72 1584.42 3594.55 1583.8 3594.18L38.9202 2700.88C37.7202 2700.19 36.9802 2698.9 36.9802 2697.52L36.9502 914.88C36.9502 913.48 37.6902 912.19 38.9002 911.51L1583.8 18.2005C1585.02 17.4905 1586.5 17.4905 1587.72 18.2005L3132.66 911.51C3133.84 912.19 3134.59 913.48 3134.59 914.88L3134.62 2697.52C3134.62 2698.91 3133.88 2700.19 3132.69 2700.88L1587.72 3594.18C1587.11 3594.55 1586.44 3594.72 1585.76 3594.72ZM44.7702 2695.27L1585.76 3586.32L3126.81 2695.27L3126.79 917.11L1585.76 26.0504L44.7402 917.11L44.7702 2695.27Z" fill="#000023"/>
<path d="M1585.76 3414.69C1585.09 3414.69 1584.42 3414.52 1583.8 3414.17L194.76 2610.97C193.56 2610.29 192.83 2608.99 192.83 2607.61L192.8 1004.78C192.8 1003.39 193.54 1002.11 194.74 1001.42L1583.81 198.221C1585.03 197.531 1586.51 197.531 1587.73 198.221L2976.82 1001.42C2978.02 1002.11 2978.76 1003.4 2978.76 1004.78L2978.78 2607.61C2978.78 2609 2978.05 2610.3 2976.85 2610.97L1587.73 3414.17C1587.12 3414.52 1586.45 3414.69 1585.77 3414.69H1585.76ZM200.61 2605.36L1585.76 3406.3L2970.99 2605.36L2970.94 1007.03L1585.76 206.091L200.59 1007.03L200.61 2605.36Z" fill="#000023"/>
<path d="M1585.76 2523.61C1585.09 2523.61 1584.42 2523.42 1583.8 2523.07L966.16 2165.92C964.96 2165.24 964.22 2163.96 964.22 2162.56L964.2 1449.83C964.2 1448.43 964.94 1447.14 966.15 1446.45L1583.8 1089.3C1585.02 1088.61 1586.5 1088.61 1587.72 1089.3L2205.38 1446.45C2206.6 1447.14 2207.34 1448.43 2207.34 1449.83L2207.36 2162.56C2207.36 2163.96 2206.62 2165.25 2205.42 2165.92L1587.72 2523.07C1587.11 2523.42 1586.44 2523.61 1585.76 2523.61ZM972.02 2160.31L1585.77 2515.2L2199.58 2160.31L2199.56 1452.07L1585.77 1097.18L972.01 1452.07L972.03 2160.31H972.02Z" fill="#000023"/>
<path d="M1585.76 2316.58C1585.09 2316.58 1584.42 2316.39 1583.8 2316.04L1145.39 2062.52C1144.19 2061.83 1143.45 2060.54 1143.45 2059.16L1143.43 1553.2C1143.43 1551.81 1144.17 1550.53 1145.37 1549.83L1583.8 1296.33C1585.02 1295.63 1586.5 1295.63 1587.72 1296.33L2026.2 1549.83C2027.4 1550.53 2028.14 1551.81 2028.14 1553.2V2059.16C2028.14 2060.55 2027.4 2061.83 2026.2 2062.52L1587.72 2316.04C1587.11 2316.39 1586.44 2316.58 1585.76 2316.58ZM1151.23 2056.91L1585.76 2308.17L2020.34 2056.91V1555.45L1585.76 1304.19L1151.22 1555.45L1151.24 2056.91H1151.23Z" fill="#000023"/>
<path d="M3079.9 955.86H91.6302C85.1802 955.86 79.9502 950.621 79.9502 944.171C79.9502 937.721 85.1802 932.48 91.6302 932.48H3079.9C3086.37 932.48 3091.61 937.721 3091.61 944.171C3091.61 950.621 3086.37 955.86 3079.9 955.86Z" fill="#000023"/>
<path d="M1585.75 3543.85C1583.76 3543.85 1581.75 3543.34 1579.92 3542.28C1574.32 3539.05 1572.4 3531.89 1575.64 3526.32L3069.79 938.341C3073.02 932.751 3080.16 930.821 3085.75 934.061C3091.33 937.291 3093.25 944.431 3090.02 950.031L1595.87 3538.01C1593.71 3541.74 1589.78 3543.86 1585.74 3543.86L1585.75 3543.85Z" fill="#000023"/>
<path d="M1585.77 3543.85C1581.73 3543.85 1577.81 3541.74 1575.64 3538L81.5098 950.021C78.2798 944.421 80.1998 937.271 85.7898 934.051C91.3898 930.811 98.5298 932.741 101.75 938.331L1595.88 3526.31C1599.12 3531.89 1597.21 3539.05 1591.61 3542.27C1589.76 3543.33 1587.75 3543.84 1585.76 3543.84L1585.77 3543.85Z" fill="#000023"/>
<path d="M2083.85 3248.06C2083.19 3248.06 2082.53 3247.91 2081.92 3247.52C2080.05 3246.47 2079.4 3244.07 2080.48 3242.23L3076.55 1516.88C3077.61 1515.01 3080 1514.36 3081.87 1515.45C3083.73 1516.52 3084.37 1518.9 3083.27 1520.76L2087.22 3246.11C2086.51 3247.36 2085.21 3248.05 2083.84 3248.05L2083.85 3248.06Z" fill="#000023"/>
<path d="M1087.75 3248.06C1086.41 3248.06 1085.09 3247.37 1084.37 3246.12L88.2899 1520.77C87.2099 1518.91 87.8499 1516.53 89.7099 1515.46C91.5699 1514.37 93.9599 1515.02 95.0399 1516.89L1091.12 3242.24C1092.19 3244.08 1091.55 3246.48 1089.69 3247.53C1089.07 3247.92 1088.41 3248.07 1087.75 3248.07V3248.06Z" fill="#000023"/>
<path d="M2581.88 660.071H589.7C587.55 660.071 585.811 658.331 585.811 656.181C585.811 654.031 587.55 652.291 589.7 652.291H2581.88C2584.04 652.291 2585.78 654.031 2585.78 656.181C2585.78 658.331 2584.04 660.071 2581.88 660.071Z" fill="#000023"/>
<path d="M2164.1 943.509C2164.1 987.809 2128.18 1023.74 2083.87 1023.74C2039.56 1023.74 2003.64 987.809 2003.64 943.509C2003.64 899.209 2039.56 863.279 2083.87 863.279C2128.18 863.279 2164.1 899.199 2164.1 943.509Z" fill="#000023"/>
<path d="M2164.1 1518.81C2164.1 1563.12 2128.18 1599.05 2083.87 1599.05C2039.56 1599.05 2003.64 1563.12 2003.64 1518.81C2003.64 1474.5 2039.56 1438.59 2083.87 1438.59C2128.18 1438.59 2164.1 1474.51 2164.1 1518.81Z" fill="#000023"/>
<path d="M1666.04 80.23C1666.04 124.53 1630.12 160.46 1585.76 160.46C1541.4 160.46 1505.53 124.53 1505.53 80.23C1505.53 35.93 1541.46 0 1585.76 0C1630.06 0 1666.04 35.92 1666.04 80.23Z" fill="#000023"/>
<path d="M3160.15 944.17C3160.15 988.48 3124.22 1024.41 3079.9 1024.41C3035.58 1024.41 2999.67 988.48 2999.67 944.17C2999.67 899.86 3035.59 863.939 3079.9 863.939C3124.21 863.939 3160.15 899.86 3160.15 944.17Z" fill="#000023"/>
<path d="M160.48 2680.35C160.48 2724.66 124.55 2760.59 80.23 2760.59C35.91 2760.59 0 2724.66 0 2680.35C0 2636.04 35.92 2600.12 80.23 2600.12C124.54 2600.12 160.48 2636.04 160.48 2680.35Z" fill="#000023"/>
<path d="M1666.04 1806.15C1666.04 1850.46 1630.14 1886.38 1585.77 1886.38C1541.4 1886.38 1505.54 1850.46 1505.54 1806.15C1505.54 1761.84 1541.47 1725.93 1585.77 1725.93C1630.07 1725.93 1666.04 1761.85 1666.04 1806.15Z" fill="#000023"/>
<path d="M2164.1 2668.85C2164.1 2713.16 2128.18 2749.1 2083.87 2749.1C2039.56 2749.1 2003.64 2713.16 2003.64 2668.85C2003.64 2624.54 2039.56 2588.63 2083.87 2588.63C2128.18 2588.63 2164.1 2624.55 2164.1 2668.85Z" fill="#000023"/>
<path d="M1666.51 3544.37C1666.51 3588.68 1630.59 3624.6 1586.25 3624.6C1541.91 3624.6 1506 3588.68 1506 3544.37C1506 3500.06 1541.92 3464.12 1586.25 3464.12C1630.58 3464.12 1666.51 3500.05 1666.51 3544.37Z" fill="#000023"/>
<path d="M3160.16 2668.21C3160.16 2712.51 3124.23 2748.44 3079.91 2748.44C3035.59 2748.44 2999.68 2712.51 2999.68 2668.21C2999.68 2623.91 3035.61 2587.98 3079.91 2587.98C3124.21 2587.98 3160.16 2623.9 3160.16 2668.21Z" fill="#000023"/>
<path d="M3123.22 1518.82C3123.22 1542.73 3103.84 1562.1 3079.94 1562.1C3056.04 1562.1 3036.64 1542.72 3036.64 1518.82C3036.64 1494.92 3056.03 1475.53 3079.94 1475.53C3103.85 1475.53 3123.22 1494.92 3123.22 1518.82Z" fill="#000023"/>
<path d="M2625.18 656.19C2625.18 680.09 2605.8 699.47 2581.88 699.47C2557.96 699.47 2538.6 680.08 2538.6 656.19C2538.6 632.3 2558 612.9 2581.88 612.9C2605.76 612.9 2625.18 632.29 2625.18 656.19Z" fill="#000023"/>
<path d="M1629.08 656.19C1629.08 680.09 1609.68 699.47 1585.75 699.47C1561.82 699.47 1542.46 680.08 1542.46 656.19C1542.46 632.3 1561.85 612.9 1585.75 612.9C1609.65 612.9 1629.08 632.29 1629.08 656.19Z" fill="#000023"/>
<path d="M134.921 944.181C134.921 968.091 115.551 987.471 91.6406 987.471C67.7306 987.471 48.3506 968.081 48.3506 944.181C48.3506 920.281 67.7406 900.891 91.6406 900.891C115.541 900.891 134.921 920.281 134.921 944.181Z" fill="#000023"/>
<path d="M633 2381.52C633 2405.43 613.62 2424.82 589.72 2424.82C565.82 2424.82 546.42 2405.42 546.42 2381.52C546.42 2357.62 565.81 2338.22 589.72 2338.22C613.63 2338.22 633 2357.61 633 2381.52Z" fill="#000023"/>
<path d="M633 1806.15C633 1830.04 613.62 1849.43 589.72 1849.43C565.82 1849.43 546.42 1830.03 546.42 1806.15C546.42 1782.27 565.81 1762.86 589.72 1762.86C613.63 1762.86 633 1782.25 633 1806.15Z" fill="#000023"/>
<path d="M1131.03 1518.82C1131.03 1542.73 1111.66 1562.1 1087.75 1562.1C1063.84 1562.1 1044.46 1542.72 1044.46 1518.82C1044.46 1494.92 1063.85 1475.53 1087.75 1475.53C1111.65 1475.53 1131.03 1494.92 1131.03 1518.82Z" fill="#000023"/>
<path d="M1629.1 2381.52C1629.1 2405.43 1609.72 2424.82 1585.79 2424.82C1561.86 2424.82 1542.49 2405.42 1542.49 2381.52C1542.49 2357.62 1561.88 2338.22 1585.79 2338.22C1609.7 2338.22 1629.1 2357.61 1629.1 2381.52Z" fill="#000023"/>
<path d="M2625.18 2381.52C2625.18 2405.43 2605.8 2424.82 2581.88 2424.82C2557.96 2424.82 2538.6 2405.42 2538.6 2381.52C2538.6 2357.62 2558 2338.22 2581.88 2338.22C2605.76 2338.22 2625.18 2357.61 2625.18 2381.52Z" fill="#000023"/>
<path d="M2625.18 1806.15C2625.18 1830.04 2605.8 1849.43 2581.88 1849.43C2557.96 1849.43 2538.6 1830.03 2538.6 1806.15C2538.6 1782.27 2558 1762.86 2581.88 1762.86C2605.76 1762.86 2625.18 1782.25 2625.18 1806.15Z" fill="#000023"/>
<path d="M2127.16 3244.16C2127.16 3268.07 2107.78 3287.46 2083.86 3287.46C2059.94 3287.46 2040.56 3268.06 2040.56 3244.16C2040.56 3220.26 2059.95 3200.88 2083.86 3200.88C2107.77 3200.88 2127.16 3220.28 2127.16 3244.16Z" fill="#000023"/>
<path d="M1131.03 3244.16C1131.03 3268.07 1111.66 3287.46 1087.75 3287.46C1063.84 3287.46 1044.46 3268.06 1044.46 3244.16C1044.46 3220.26 1063.85 3200.88 1087.75 3200.88C1111.65 3200.88 1131.03 3220.28 1131.03 3244.16Z" fill="#000023"/>
<path d="M1585.77 2006.45C1475.37 2006.45 1385.56 1916.56 1385.56 1806.16C1385.56 1695.76 1475.37 1605.93 1585.77 1605.93C1696.17 1605.93 1786 1695.75 1786 1806.16C1786 1916.57 1696.21 2006.45 1585.77 2006.45ZM1585.77 1613.73C1479.66 1613.73 1393.35 1700.06 1393.35 1806.16C1393.35 1912.26 1479.66 1998.65 1585.77 1998.65C1691.88 1998.65 1778.22 1912.27 1778.22 1806.16C1778.22 1700.05 1691.91 1613.73 1585.77 1613.73Z" fill="#000023"/>
<path d="M91.6304 1035.23C41.8204 1035.23 0.970398 994.699 0.590398 944.899C0.380398 920.579 9.67035 897.639 26.7304 880.299C43.8004 862.959 66.5803 853.309 90.9103 853.109C141.47 853.109 182.3 893.619 182.69 943.439C182.9 967.749 173.61 990.699 156.55 1008.03C139.49 1025.37 116.7 1035.03 92.3904 1035.23H91.6404H91.6304ZM91.6603 860.909C68.7203 861.099 47.8804 869.929 32.2804 885.779C16.6904 901.629 8.20037 922.609 8.37037 944.849C8.73037 990.399 46.0804 1027.44 91.6304 1027.44V1031.33L92.3204 1027.44C114.55 1027.26 135.38 1018.44 150.99 1002.58C166.59 986.719 175.08 965.739 174.9 943.509C174.54 897.959 137.21 860.909 91.6704 860.909H91.6603Z" fill="#000023"/>
<path d="M589.7 2472.58C539.88 2472.58 499.041 2432.05 498.641 2382.26C498.451 2357.93 507.731 2334.97 524.791 2317.66C541.851 2300.31 564.641 2290.68 588.971 2290.46C639.531 2290.46 680.361 2330.97 680.751 2380.78C680.951 2405.11 671.661 2428.07 654.611 2445.39C637.551 2462.72 614.76 2472.39 590.44 2472.59H589.7V2472.58ZM589.741 2298.27C566.801 2298.46 545.951 2307.27 530.361 2323.12C514.761 2338.97 506.26 2359.95 506.45 2382.2C506.8 2427.73 544.171 2464.8 589.711 2464.8V2468.7L590.391 2464.8C612.621 2464.61 633.461 2455.8 649.061 2439.93C664.661 2424.08 673.151 2403.08 672.971 2380.85C672.611 2335.32 635.271 2298.27 589.741 2298.27Z" fill="#000023"/>
<path d="M2581.88 747.229C2532.06 747.229 2491.22 706.719 2490.82 656.909C2490.62 632.579 2499.93 609.649 2516.99 592.309C2534.04 574.979 2556.83 565.319 2581.16 565.119C2631.73 565.119 2672.54 605.629 2672.95 655.439C2673.15 679.759 2663.86 702.699 2646.8 720.039C2629.74 737.379 2606.95 747.039 2582.63 747.229H2581.89H2581.88ZM2581.91 572.919C2558.97 573.099 2538.14 581.919 2522.53 597.769C2506.92 613.619 2498.44 634.599 2498.62 656.839C2498.98 702.389 2536.33 739.439 2581.88 739.439V743.329L2582.57 739.439C2604.79 739.249 2625.63 730.429 2641.24 714.569C2656.83 698.709 2665.32 677.729 2665.13 655.499C2664.79 609.949 2627.46 572.919 2581.91 572.919Z" fill="#000023"/>
<path d="M2083.86 3335.22C2034.04 3335.22 1993.2 3294.71 1992.8 3244.9C1992.6 3220.57 2001.89 3197.63 2018.95 3180.3C2036.01 3162.97 2058.8 3153.32 2083.11 3153.12C2133.68 3153.12 2174.51 3193.63 2174.91 3243.42C2175.11 3267.75 2165.8 3290.71 2148.74 3308.03C2131.69 3325.38 2108.9 3335.04 2084.59 3335.23H2083.85L2083.86 3335.22ZM2083.9 3160.9C2060.96 3161.09 2040.11 3169.9 2024.52 3185.75C2008.91 3201.61 2000.43 3222.6 2000.6 3244.83C2000.95 3290.36 2038.33 3327.43 2083.87 3327.43V3331.33L2084.55 3327.43C2106.78 3327.24 2127.61 3318.43 2143.22 3302.58C2158.83 3286.72 2167.31 3265.72 2167.13 3243.48C2166.77 3197.95 2129.42 3160.9 2083.91 3160.9H2083.9Z" fill="#000023"/>
</svg>
